<svg xmlns="http://www.w3.org/2000/svg" viewBox="0 0 32 32">
  <rect width="32" height="32" rx="4" fill="#ff385c" />
  <g transform="translate(6, 6) scale(0.625)">
    <path fill="#ffffff" d="M16 1c-1.7 0-3.3.9-4.1 2.4L3.3 18.6a6.2 6.2 0 0 0 5.4 9.4c2.3 0 4.4-1.2 5.6-3.2l1.7-2.8 1.7 2.8c1.2 2 3.3 3.2 5.6 3.2a6.2 6.2 0 0 0 5.4-9.4L20.1 3.4A4.7 4.7 0 0 0 16 1zm0 5c.5 0 .9.3 1.2.7l8.6 15.2a2.2 2.2 0 0 1-1.9 3.3c-.8 0-1.5-.4-1.9-1.1L16 13.7l-6 10.4c-.4.7-1.1 1.1-1.9 1.1a2.2 2.2 0 0 1-1.9-3.3L14.8 6.7c.3-.4.7-.7 1.2-.7z" />
  </g>
</svg>